{"title":"Complete Unknown 2016 WEB-DL XviD MP3-FGT [CoolSceneHD]","uid":15946195,"size":1062929712,"categoryP":"video","categoryS":"movies","magnet":"?xt=urn:btih:83cf2e444b089665164c9d3ea45aa1f191203134&amp;dn=Complete+Unknown+2016+WEB-DL+XviD+MP3-FGT+%5BCoolSceneHD%5D&amp;tr=udp%3A%2F%2Ftracker.leechers-paradise.org%3A6969&amp;tr=udp%3A%2F%2Fzer0day.ch%3A1337&amp;tr=udp%3A%2F%2Fopen.demonii.com%3A1337&amp;tr=udp%3A%2F%2Ftracker.coppersurfer.tk%3A6969&amp;tr=udp%3A%2F%2Fexodus.desync.com%3A6969","seeders":0,"leechers":7,"uploader":"CoolSceneHD","files":1,"time":1475511659,"description":"Plot:\tThis shape-shifting tale of the perils and pleasures of self-reinvention begins at a dinner party| when Tom's (Michael Shannon) co-worker arrives with an intriguing date named Alice (Rachel Weisz). Tom is convinced he knows her| but she refuses to acknowledge their history. And when Alice makes a hasty exit| Tom sets off after her. What follows is an all-night odyssey shared by two people| one needing to change his life| the other questioning how to stop changing.\r\n\r\n\r\nVideo\r\nID                                       : 0\r\nFormat                                   : MPEG-4 Visual\r\nFormat profile                           :   \r\nFormat settings, BVOP                    : No\r\nFormat settings, QPel                    : No\r\nFormat settings, GMC                     : No warppoints\r\nFormat settings, Matrix                  : Default (H.263)\r\nCodec ID                                 : XVID\r\nCodec ID/Hint                            : XviD\r\nDuration                                 : 1h 31mn\r\nBit rate                                 : 1 338 Kbps\r\nWidth                                    : 720 pixels\r\nHeight                                   : 304 pixels\r\nDisplay aspect ratio                     : 2.40:1\r\nFrame rate                               : 23.976 fps\r\nColor space                              : YUV\r\nChroma subsampling                       : 4:2:0\r\nBit depth                                : 8 bits\r\nScan type                                : Progressive\r\nCompression mode                         : Lossy\r\nBits/(Pixel*Frame)                       : 0.255\r\nStream size                              : 879 MiB (87%)\r\nWriting library                          : Lavc57.16.101\r\n\r\n\r\n\r\nAudio\r\nID                                       : 1\r\nFormat                                   : MPEG Audio\r\nFormat version                           : Version 1\r\nFormat profile                           : Layer 3\r\nMode                                     : Joint stereo\r\nMode extension                           : MS Stereo\r\nCodec ID                                 : 55\r\nCodec ID/Hint                            : MP3\r\nDuration                                 : 1h 31mn\r\nBit rate mode                            : Constant\r\nBit rate                                 : 192 Kbps\r\nChannel(s)                               : 2 channels\r\nSampling rate                            : 48.0 KHz\r\nCompression mode                         : Lossy\r\nStream size                              : 126 MiB (12%)\r\nAlignment                                : Aligned on interleaves\r\nInterleave, duration                     : 24 ms (0.58 video frame)\r\nInterleave, preload duration             : 504 ms\r\nWriting library                          : LAME3.99.5","torrent":{"xt":"urn:btih:83cf2e444b089665164c9d3ea45aa1f191203134","amp;dn":"Complete+Unknown+2016+WEB-DL+XviD+MP3-FGT+%5BCoolSceneHD%5D","amp;tr":["udp%3A%2F%2Ftracker.leechers-paradise.org%3A6969","udp%3A%2F%2Fzer0day.ch%3A1337","udp%3A%2F%2Fopen.demonii.com%3A1337","udp%3A%2F%2Ftracker.coppersurfer.tk%3A6969","udp%3A%2F%2Fexodus.desync.com%3A6969"],"infoHash":"83cf2e444b089665164c9d3ea45aa1f191203134","infoHashBuffer":{"type":"Buffer","data":[131,207,46,68,75,8,150,101,22,76,157,62,164,90,161,241,145,32,49,52]},"announce":[],"urlList":[]}}